
<svg width="64" height="64" viewBox="0 0 64 64" fill="none" xmlns="http://www.w3.org/2000/svg">
<path d="M22.9813 41.3125C23.028 41.3723 23.0878 41.4206 23.156 41.4538C23.2242 41.4871 23.2991 41.5043 23.375 41.5043C23.4509 41.5043 23.5258 41.4871 23.594 41.4538C23.6622 41.4206 23.722 41.3723 23.7687 41.3125L30.7687 32.4562C31.025 32.1312 30.7938 31.65 30.375 31.65H25.7438V10.5C25.7438 10.225 25.5188 10 25.2438 10H21.4937C21.2188 10 20.9937 10.225 20.9937 10.5V31.6437H16.375C15.9563 31.6437 15.725 32.125 15.9813 32.45L22.9813 41.3125ZM46.25 39.125H42.5C42.225 39.125 42 39.35 42 39.625V49.25H4.75V39.625C4.75 39.35 4.525 39.125 4.25 39.125H0.5C0.225 39.125 0 39.35 0 39.625V52C0 53.1063 0.89375 54 2 54H44.75C45.8563 54 46.75 53.1063 46.75 52V39.625C46.75 39.35 46.525 39.125 46.25 39.125Z" fill="black"/>
</svg>
