<svg width="42" height="36" viewBox="0 0 42 36" fill="none" xmlns="http://www.w3.org/2000/svg">
<path d="M7.14493 0.077343C6.75118 0.182812 6.2918 0.44297 6.00469 0.745312C5.45508 1.31485 5.4961 -0.0281258 5.4961 18C5.4961 36.218 5.44688 34.7063 6.06212 35.3109C6.23438 35.4797 6.5543 35.6906 6.77579 35.7891L7.17774 35.9648H21H34.8223L35.2242 35.7891C35.4457 35.6906 35.7656 35.4797 35.9379 35.3109C36.5531 34.7133 36.5039 35.7891 36.4957 21.8391C36.4957 12.4313 36.4711 9.26719 36.3973 9.10547C36.1348 8.53594 36.4957 8.83125 27.866 2.025C26.0121 0.5625 25.5938 0.267189 25.2164 0.147655C24.7734 0 24.6504 0 16.0945 0.00703049C10.7789 0.00703049 7.31719 0.0421867 7.14493 0.077343ZM22.0664 5.74453C22.0664 7.55859 22.0992 9.225 22.1484 9.45C22.3699 10.6242 23.4199 11.4961 24.8145 11.6719C25.1344 11.707 27.2098 11.7422 29.5149 11.7422H33.6328V22.6406V33.5391H21H8.36719V18V2.46094H15.2168H22.0664V5.74453ZM28.3254 6.57422L31.5738 9.17578L28.3254 9.19688C25.7742 9.21094 25.0606 9.18984 25.0031 9.12656C24.9129 9 24.9211 3.91641 25.0113 3.95156C25.0441 3.9586 26.5371 5.13984 28.3254 6.57422Z" fill="black"/>
<path d="M12.0832 16.1087C11.3941 16.2494 10.7461 16.9595 10.7461 17.5783C10.7461 17.965 11.0004 18.415 11.3695 18.6962C12.5426 19.5822 14.2898 18.9072 14.2898 17.5783C14.2898 16.5728 13.2563 15.8837 12.0832 16.1087Z" fill="black"/>
<path d="M15.832 17.6133V18.8438H23.4199H31.0078V17.6133V16.3828H23.4199H15.832V17.6133Z" fill="black"/>
<path d="M12.0668 21.0376C11.4023 21.1642 10.7461 21.9025 10.7461 22.5142C10.7461 22.8869 11.0086 23.3439 11.3695 23.6181C12.5426 24.504 14.2898 23.829 14.2898 22.5001C14.2898 21.4876 13.2563 20.8056 12.0668 21.0376Z" fill="black"/>
<path d="M15.832 22.5352V23.7656H23.4199H31.0078V22.5352V21.3047H23.4199H15.832V22.5352Z" fill="black"/>
<path d="M12.0668 25.9595C11.4023 26.0861 10.7461 26.8244 10.7461 27.4361C10.7461 28.0408 11.3367 28.6947 12.0422 28.8705C13.1988 29.1588 14.2898 28.4556 14.2898 27.422C14.2898 26.4095 13.2563 25.7275 12.0668 25.9595Z" fill="black"/>
<path d="M15.832 27.457V28.6875H23.4199H31.0078V27.457V26.2266H23.4199H15.832V27.457Z" fill="black"/>
</svg>
