
<svg width="64" height="64" viewBox="0 0 64 64" fill="none" xmlns="http://www.w3.org/2000/svg">
<path d="M43 16.5C43 16.225 42.775 16 42.5 16H18.5C18.225 16 18 16.225 18 16.5V19.5C18 19.775 18.225 20 18.5 20H42.5C42.775 20 43 19.775 43 19.5V16.5ZM42.5 25H18.5C18.225 25 18 25.225 18 25.5V28.5C18 28.775 18.225 29 18.5 29H42.5C42.775 29 43 28.775 43 28.5V25.5C43 25.225 42.775 25 42.5 25ZM30 34H18.5C18.225 34 18 34.225 18 34.5V37.5C18 37.775 18.225 38 18.5 38H30C30.275 38 30.5 37.775 30.5 37.5V34.5C30.5 34.225 30.275 34 30 34ZM27 53.25H13V9.25H48V30.75C48 31.025 48.225 31.25 48.5 31.25H52C52.275 31.25 52.5 31.025 52.5 30.75V6.75C52.5 5.64375 51.6063 4.75 50.5 4.75H10.5C9.39375 4.75 8.5 5.64375 8.5 6.75V55.75C8.5 56.8563 9.39375 57.75 10.5 57.75H27C27.275 57.75 27.5 57.525 27.5 57.25V53.75C27.5 53.475 27.275 53.25 27 53.25ZM49.3 48.6C51.1125 46.9562 52.25 44.5812 52.25 41.9375C52.25 36.9688 48.2188 32.9375 43.25 32.9375C38.2812 32.9375 34.25 36.9688 34.25 41.9375C34.25 44.5812 35.3875 46.9562 37.2 48.6C33.6375 50.6312 31.1875 54.3937 31 58.7313C30.9875 59.0125 31.2188 59.25 31.5 59.25H34.5062C34.7687 59.25 34.9875 59.0438 35.0062 58.775C35.25 54.45 38.8563 51 43.25 51C47.6437 51 51.25 54.45 51.4938 58.775C51.5063 59.0375 51.725 59.25 51.9938 59.25H55C55.2875 59.25 55.5125 59.0125 55.5 58.7313C55.3187 54.3875 52.8625 50.6312 49.3 48.6ZM43.25 36.9375C46.0125 36.9375 48.25 39.175 48.25 41.9375C48.25 44.7 46.0125 46.9375 43.25 46.9375C40.4875 46.9375 38.25 44.7 38.25 41.9375C38.25 39.175 40.4875 36.9375 43.25 36.9375Z" fill="black"/>
</svg>
