<svg width="49" height="44" viewBox="0 0 49 44" fill="none" xmlns="http://www.w3.org/2000/svg">
<path d="M23.0544 4.48232C22.6322 4.62601 22.1631 4.98946 20.0993 6.73915C18.7577 7.88869 14.6112 11.405 10.8962 14.5578C7.18126 17.7106 4.01977 20.4323 3.86967 20.6013C2.96907 21.6241 2.82835 23.0272 3.51319 24.1852C3.86029 24.76 4.72337 25.4531 5.38006 25.6898C5.78345 25.825 6.19623 25.8842 6.98425 25.918L8.03496 25.9603V31.0825C8.03496 34.0409 8.08186 36.4583 8.12877 36.7965C8.39144 38.4447 9.78925 39.8225 11.5529 40.1775C12.097 40.2874 12.7913 40.3043 15.5869 40.2874L18.9641 40.262L19.4426 40.0338C19.9961 39.7718 20.4557 39.3238 20.7372 38.7913C20.9248 38.4193 20.9342 38.2418 20.9811 34.6326C21.028 31.0656 21.0374 30.8458 21.2062 30.6768C21.3845 30.5077 21.4595 30.4993 24.0769 30.4993C26.6943 30.4993 26.7693 30.5077 26.9476 30.6768C27.1164 30.8458 27.1258 31.0656 27.1727 34.6326C27.2196 38.2418 27.229 38.4193 27.4166 38.7913C27.6981 39.3238 28.1578 39.7718 28.7113 40.0338L29.1897 40.262L32.5201 40.2874C34.7528 40.3043 36.038 40.2874 36.4133 40.2197C38.2801 39.8985 39.7812 38.4532 40.0251 36.7542C40.072 36.4076 40.1189 33.8296 40.1189 31.0403V25.9603L41.179 25.918C42.5205 25.8588 43.1021 25.6729 43.8526 25.0474C45.3349 23.8133 45.4943 21.9453 44.2372 20.5506C43.984 20.2801 35.8035 13.2983 26.3566 5.30221C25.1839 4.31326 24.227 4.07659 23.0544 4.48232ZM32.642 15.2847L41.1414 22.5116L39.3309 22.5539L37.5109 22.5961L37.1544 22.8582C36.9574 22.9934 36.7135 23.2216 36.6103 23.3484C36.4133 23.5766 36.4133 23.6781 36.3664 30.0513L36.3195 36.5175L36.0568 36.7204L35.7941 36.9232H33.3644H30.9346L30.9065 33.5591C30.8783 30.2626 30.869 30.195 30.6532 29.7132C30.156 28.5975 29.0208 27.6339 27.7731 27.2873C27.2009 27.1352 26.9101 27.1183 24.0769 27.1183C21.2438 27.1183 20.953 27.1352 20.3807 27.2873C19.133 27.6339 17.9979 28.5975 17.5007 29.7132C17.2849 30.195 17.2755 30.2626 17.2474 33.5591L17.2192 36.9232H14.7895H12.3597L12.097 36.7204L11.8344 36.5175L11.7875 30.0513L11.7406 23.5851L11.4497 23.2554C10.8962 22.6469 10.7368 22.6046 8.76669 22.5539L7.02178 22.5116L15.5212 15.2678C20.2025 11.2866 24.0582 8.03239 24.0863 8.04084C24.1144 8.04929 27.9701 11.312 32.642 15.2847Z" fill="#2D3A3A"/>
</svg>
