
<svg width="64" height="64" viewBox="0 0 64 64" fill="none" xmlns="http://www.w3.org/2000/svg">
<path d="M55.5 49.5H12.5V10.5C12.5 10.225 12.275 10 12 10H8.5C8.225 10 8 10.225 8 10.5V53.5C8 53.775 8.225 54 8.5 54H55.5C55.775 54 56 53.775 56 53.5V50C56 49.725 55.775 49.5 55.5 49.5ZM18 44.5H21.5C21.775 44.5 22 44.275 22 44V35C22 34.725 21.775 34.5 21.5 34.5H18C17.725 34.5 17.5 34.725 17.5 35V44C17.5 44.275 17.725 44.5 18 44.5ZM27.5 44.5H31C31.275 44.5 31.5 44.275 31.5 44V24C31.5 23.725 31.275 23.5 31 23.5H27.5C27.225 23.5 27 23.725 27 24V44C27 44.275 27.225 44.5 27.5 44.5ZM37 44.5H40.5C40.775 44.5 41 44.275 41 44V28.875C41 28.6 40.775 28.375 40.5 28.375H37C36.725 28.375 36.5 28.6 36.5 28.875V44C36.5 44.275 36.725 44.5 37 44.5ZM46.5 44.5H50C50.275 44.5 50.5 44.275 50.5 44V19C50.5 18.725 50.275 18.5 50 18.5H46.5C46.225 18.5 46 18.725 46 19V44C46 44.275 46.225 44.5 46.5 44.5Z" fill="black"/>
</svg>
