
<svg width="64" height="64" viewBox="0 0 64 64" fill="none" xmlns="http://www.w3.org/2000/svg">
<path d="M53.1564 47.725C51.9774 44.9323 50.2665 42.3956 48.1189 40.2562C45.9779 38.1106 43.4416 36.4 40.6502 35.2188C40.6252 35.2062 40.6002 35.2 40.5752 35.1875C44.4689 32.375 47.0002 27.7938 47.0002 22.625C47.0002 14.0625 40.0627 7.125 31.5002 7.125C22.9377 7.125 16.0002 14.0625 16.0002 22.625C16.0002 27.7938 18.5314 32.375 22.4252 35.1937C22.4002 35.2062 22.3752 35.2125 22.3502 35.225C19.5502 36.4062 17.0377 38.1 14.8814 40.2625C12.7358 42.4035 11.0251 44.9398 9.84391 47.7313C8.68342 50.4641 8.05754 53.394 8.00016 56.3625C7.99849 56.4292 8.01019 56.4956 8.03457 56.5577C8.05895 56.6198 8.09551 56.6764 8.14211 56.7242C8.18871 56.7719 8.24439 56.8099 8.30588 56.8358C8.36737 56.8617 8.43343 56.875 8.50016 56.875H12.2502C12.5252 56.875 12.7439 56.6562 12.7502 56.3875C12.8752 51.5625 14.8127 47.0438 18.2377 43.6188C21.7814 40.075 26.4877 38.125 31.5002 38.125C36.5127 38.125 41.2189 40.075 44.7627 43.6188C48.1877 47.0438 50.1252 51.5625 50.2502 56.3875C50.2564 56.6625 50.4752 56.875 50.7502 56.875H54.5002C54.5669 56.875 54.6329 56.8617 54.6944 56.8358C54.7559 56.8099 54.8116 56.7719 54.8582 56.7242C54.9048 56.6764 54.9414 56.6198 54.9657 56.5577C54.9901 56.4956 55.0018 56.4292 55.0002 56.3625C54.9377 53.375 54.3189 50.4688 53.1564 47.725ZM31.5002 33.375C28.6314 33.375 25.9314 32.2563 23.9002 30.225C21.8689 28.1938 20.7502 25.4937 20.7502 22.625C20.7502 19.7563 21.8689 17.0562 23.9002 15.025C25.9314 12.9937 28.6314 11.875 31.5002 11.875C34.3689 11.875 37.0689 12.9937 39.1002 15.025C41.1314 17.0562 42.2502 19.7563 42.2502 22.625C42.2502 25.4937 41.1314 28.1938 39.1002 30.225C37.0689 32.2563 34.3689 33.375 31.5002 33.375Z" fill="black"/>
</svg>
